<svg xmlns="http://www.w3.org/2000/svg" viewBox="0 0 200 200" width="200" height="200">
  <rect width="200" height="200" fill="#fff"/>
  <rect x="16" y="16" width="56" height="56" fill="#1a1a1a"/>
  <rect x="24" y="24" width="40" height="40" fill="#fff"/>
  <rect x="32" y="32" width="24" height="24" fill="#1a1a1a"/>
  <rect x="128" y="16" width="56" height="56" fill="#1a1a1a"/>
  <rect x="136" y="24" width="40" height="40" fill="#fff"/>
  <rect x="144" y="32" width="24" height="24" fill="#1a1a1a"/>
  <rect x="16" y="128" width="56" height="56" fill="#1a1a1a"/>
  <rect x="24" y="136" width="40" height="40" fill="#fff"/>
  <rect x="32" y="144" width="24" height="24" fill="#1a1a1a"/>
  <rect x="88" y="16" width="12" height="12" fill="#1a1a1a"/>
  <rect x="104" y="16" width="12" height="12" fill="#1a1a1a"/>
  <rect x="88" y="32" width="12" height="12" fill="#1a1a1a"/>
  <rect x="112" y="32" width="12" height="12" fill="#1a1a1a"/>
  <rect x="88" y="88" width="12" height="12" fill="#1a1a1a"/>
  <rect x="104" y="96" width="12" height="12" fill="#1a1a1a"/>
  <rect x="120" y="88" width="12" height="12" fill="#1a1a1a"/>
  <rect x="136" y="96" width="12" height="12" fill="#1a1a1a"/>
  <rect x="152" y="88" width="12" height="12" fill="#1a1a1a"/>
  <rect x="88" y="112" width="12" height="12" fill="#1a1a1a"/>
  <rect x="112" y="120" width="12" height="12" fill="#1a1a1a"/>
  <rect x="136" y="112" width="12" height="12" fill="#1a1a1a"/>
  <rect x="160" y="120" width="12" height="12" fill="#1a1a1a"/>
  <rect x="88" y="144" width="12" height="12" fill="#1a1a1a"/>
  <rect x="104" y="152" width="12" height="12" fill="#1a1a1a"/>
  <rect x="128" y="144" width="12" height="12" fill="#1a1a1a"/>
  <rect x="152" y="152" width="12" height="12" fill="#1a1a1a"/>
  <rect x="176" y="144" width="8" height="8" fill="#1a1a1a"/>
  <text x="100" y="195" text-anchor="middle" font-family="system-ui,sans-serif" font-size="8" fill="#8B0000">Replace with your UPI QR</text>
</svg>
